<svg xmlns="http://www.w3.org/2000/svg" xmlns:xlink="http://www.w3.org/1999/xlink" width="672" zoomAndPan="magnify" viewBox="0 0 504 359.999987" height="480" preserveAspectRatio="xMidYMid meet" version="1.0"><defs><g/></defs><rect x="-50.4" width="604.8" fill="rgb(100%, 100%, 100%)" y="-35.999999" height="431.999984" fill-opacity="1"/><rect x="-50.4" width="604.8" fill="rgb(100%, 100%, 100%)" y="-35.999999" height="431.999984" fill-opacity="1"/><rect x="-50.4" width="604.8" fill="rgb(100%, 100%, 100%)" y="-35.999999" height="431.999984" fill-opacity="1"/><rect x="-50.4" width="604.8" fill="rgb(100%, 100%, 100%)" y="-35.999999" height="431.999984" fill-opacity="1"/><g fill="rgb(81.959534%, 76.078796%, 69.018555%)" fill-opacity="1"><g transform="translate(111.898352, 143.249989)"><g><path d="M 3.652344 0 L 13.464844 0 L 13.464844 -31.941406 L 13.820312 -31.941406 L 27.429688 0 L 34.664062 0 L 48.34375 -31.941406 L 48.699219 -31.941406 L 48.699219 0 L 58.511719 0 L 58.511719 -50.847656 L 47.695312 -50.847656 L 31.082031 -12.53125 L 14.464844 -50.847656 L 3.652344 -50.847656 Z M 3.652344 0 "/></g></g></g><g fill="rgb(81.959534%, 76.078796%, 69.018555%)" fill-opacity="1"><g transform="translate(174.058603, 143.249989)"><g><path d="M 39.746094 0 L 50.347656 0 L 30.722656 -50.847656 L 20.339844 -50.847656 L 0.789062 0 L 11.386719 0 L 14.753906 -9.167969 L 36.382812 -9.167969 Z M 18.046875 -18.191406 L 25.566406 -38.671875 L 33.085938 -18.191406 Z M 18.046875 -18.191406 "/></g></g></g><g fill="rgb(81.959534%, 76.078796%, 69.018555%)" fill-opacity="1"><g transform="translate(225.190423, 143.249989)"><g><path d="M 31.511719 0 L 41.96875 0 L 30.078125 -18.476562 C 35.953125 -20.984375 39.460938 -26.285156 39.460938 -33.589844 C 39.460938 -43.972656 32.300781 -50.847656 21.484375 -50.847656 L 3.652344 -50.847656 L 3.652344 0 L 13.464844 0 L 13.464844 -16.832031 L 21.054688 -16.832031 Z M 13.464844 -41.824219 L 20.484375 -41.824219 C 25.855469 -41.824219 29.507812 -39.460938 29.507812 -33.589844 C 29.507812 -27.644531 25.855469 -25.351562 20.484375 -25.351562 L 13.464844 -25.351562 Z M 13.464844 -41.824219 "/></g></g></g><g fill="rgb(81.959534%, 76.078796%, 69.018555%)" fill-opacity="1"><g transform="translate(269.304143, 143.249989)"><g><path d="M 34.304688 0 L 45.191406 0 L 24.277344 -27.714844 L 43.542969 -50.847656 L 32.515625 -50.847656 L 13.464844 -27.644531 L 13.464844 -50.847656 L 3.652344 -50.847656 L 3.652344 0 L 13.464844 0 L 13.464844 -14.753906 L 18.40625 -20.699219 Z M 34.304688 0 "/></g></g></g><g fill="rgb(81.959534%, 76.078796%, 69.018555%)" fill-opacity="1"><g transform="translate(315.566274, 143.249989)"><g><path d="M 13.464844 -9.023438 L 13.464844 -21.128906 L 29.433594 -21.128906 L 29.433594 -30.007812 L 13.464844 -30.007812 L 13.464844 -41.824219 L 32.441406 -41.824219 L 32.441406 -50.847656 L 3.652344 -50.847656 L 3.652344 0 L 33.085938 0 L 33.085938 -9.023438 Z M 13.464844 -9.023438 "/></g></g></g><g fill="rgb(81.959534%, 76.078796%, 69.018555%)" fill-opacity="1"><g transform="translate(351.158037, 143.249989)"><g><path d="M 36.167969 -50.847656 L 1.863281 -50.847656 L 1.863281 -41.824219 L 14.109375 -41.824219 L 14.109375 0 L 23.921875 0 L 23.921875 -41.824219 L 36.167969 -41.824219 Z M 36.167969 -50.847656 "/></g></g></g><g fill="rgb(81.959534%, 76.078796%, 69.018555%)" fill-opacity="1"><g transform="translate(111.898352, 204.749984)"><g><path d="M 19.910156 0 L 29.722656 0 L 29.722656 -20.339844 L 48.128906 -50.847656 L 37.027344 -50.847656 L 24.78125 -29.578125 L 12.605469 -50.847656 L 1.503906 -50.847656 L 19.910156 -20.339844 Z M 19.910156 0 "/></g></g></g><g fill="rgb(81.959534%, 76.078796%, 69.018555%)" fill-opacity="1"><g transform="translate(161.526293, 204.749984)"><g><path d="M 29.078125 0.714844 C 43.257812 0.714844 55.289062 -9.8125 55.289062 -25.425781 C 55.289062 -41.035156 43.257812 -51.566406 29.078125 -51.566406 C 14.894531 -51.566406 2.9375 -41.035156 2.9375 -25.425781 C 2.9375 -9.8125 14.894531 0.714844 29.078125 0.714844 Z M 29.078125 -8.59375 C 20.410156 -8.59375 12.960938 -15.183594 12.960938 -25.425781 C 12.960938 -35.664062 20.410156 -42.253906 29.078125 -42.253906 C 37.8125 -42.253906 45.191406 -35.664062 45.191406 -25.425781 C 45.191406 -15.183594 37.8125 -8.59375 29.078125 -8.59375 Z M 29.078125 -8.59375 "/></g></g></g><g fill="rgb(81.959534%, 76.078796%, 69.018555%)" fill-opacity="1"><g transform="translate(219.676201, 204.749984)"><g><path d="M 22.847656 0.714844 C 33.515625 0.714844 42.039062 -6.160156 42.039062 -18.90625 L 42.039062 -50.847656 L 32.226562 -50.847656 L 32.226562 -18.90625 C 32.226562 -10.957031 27.285156 -8.523438 22.847656 -8.523438 C 18.335938 -8.523438 13.464844 -10.957031 13.464844 -18.90625 L 13.464844 -50.847656 L 3.652344 -50.847656 L 3.652344 -18.90625 C 3.652344 -6.160156 12.175781 0.714844 22.847656 0.714844 Z M 22.847656 0.714844 "/></g></g></g><g fill="rgb(81.959534%, 76.078796%, 69.018555%)" fill-opacity="1"><g transform="translate(265.293801, 204.749984)"><g><path d="M 31.511719 0 L 41.96875 0 L 30.078125 -18.476562 C 35.953125 -20.984375 39.460938 -26.285156 39.460938 -33.589844 C 39.460938 -43.972656 32.300781 -50.847656 21.484375 -50.847656 L 3.652344 -50.847656 L 3.652344 0 L 13.464844 0 L 13.464844 -16.832031 L 21.054688 -16.832031 Z M 13.464844 -41.824219 L 20.484375 -41.824219 C 25.855469 -41.824219 29.507812 -39.460938 29.507812 -33.589844 C 29.507812 -27.644531 25.855469 -25.351562 20.484375 -25.351562 L 13.464844 -25.351562 Z M 13.464844 -41.824219 "/></g></g></g><g fill="rgb(81.959534%, 76.078796%, 69.018555%)" fill-opacity="1"><g transform="translate(309.406149, 204.749984)"><g/></g></g><g fill="rgb(81.959534%, 76.078796%, 69.018555%)" fill-opacity="1"><g transform="translate(111.898352, 266.249979)"><g><path d="M 3.652344 0 L 22.058594 0 C 36.09375 0 46.621094 -10.457031 46.621094 -25.425781 C 46.621094 -40.390625 36.09375 -50.847656 22.058594 -50.847656 L 3.652344 -50.847656 Z M 13.464844 -9.238281 L 13.464844 -41.609375 L 21.699219 -41.609375 C 31.367188 -41.609375 36.382812 -35.019531 36.382812 -25.425781 C 36.382812 -15.828125 31.367188 -9.238281 21.699219 -9.238281 Z M 13.464844 -9.238281 "/></g></g></g><g fill="rgb(81.959534%, 76.078796%, 69.018555%)" fill-opacity="1"><g transform="translate(160.666933, 266.249979)"><g><path d="M 31.511719 0 L 41.96875 0 L 30.078125 -18.476562 C 35.953125 -20.984375 39.460938 -26.285156 39.460938 -33.589844 C 39.460938 -43.972656 32.300781 -50.847656 21.484375 -50.847656 L 3.652344 -50.847656 L 3.652344 0 L 13.464844 0 L 13.464844 -16.832031 L 21.054688 -16.832031 Z M 13.464844 -41.824219 L 20.484375 -41.824219 C 25.855469 -41.824219 29.507812 -39.460938 29.507812 -33.589844 C 29.507812 -27.644531 25.855469 -25.351562 20.484375 -25.351562 L 13.464844 -25.351562 Z M 13.464844 -41.824219 "/></g></g></g><g fill="rgb(81.959534%, 76.078796%, 69.018555%)" fill-opacity="1"><g transform="translate(204.780653, 266.249979)"><g><path d="M 13.464844 -9.023438 L 13.464844 -21.128906 L 29.433594 -21.128906 L 29.433594 -30.007812 L 13.464844 -30.007812 L 13.464844 -41.824219 L 32.441406 -41.824219 L 32.441406 -50.847656 L 3.652344 -50.847656 L 3.652344 0 L 33.085938 0 L 33.085938 -9.023438 Z M 13.464844 -9.023438 "/></g></g></g><g fill="rgb(81.959534%, 76.078796%, 69.018555%)" fill-opacity="1"><g transform="translate(240.372405, 266.249979)"><g><path d="M 39.746094 0 L 50.347656 0 L 30.722656 -50.847656 L 20.339844 -50.847656 L 0.789062 0 L 11.386719 0 L 14.753906 -9.167969 L 36.382812 -9.167969 Z M 18.046875 -18.191406 L 25.566406 -38.671875 L 33.085938 -18.191406 Z M 18.046875 -18.191406 "/></g></g></g><g fill="rgb(81.959534%, 76.078796%, 69.018555%)" fill-opacity="1"><g transform="translate(291.504225, 266.249979)"><g><path d="M 3.652344 0 L 13.464844 0 L 13.464844 -31.941406 L 13.820312 -31.941406 L 27.429688 0 L 34.664062 0 L 48.34375 -31.941406 L 48.699219 -31.941406 L 48.699219 0 L 58.511719 0 L 58.511719 -50.847656 L 47.695312 -50.847656 L 31.082031 -12.53125 L 14.464844 -50.847656 L 3.652344 -50.847656 Z M 3.652344 0 "/></g></g></g></svg>